<?xml version="1.0" standalone="no"?>
<!DOCTYPE svg PUBLIC "-//W3C//DTD SVG 20010904//EN"
 "http://www.w3.org/TR/2001/REC-SVG-20010904/DTD/svg10.dtd">
<svg version="1.0" xmlns="http://www.w3.org/2000/svg"
 width="512.000000pt" height="512.000000pt" viewBox="0 0 512.000000 512.000000"
 preserveAspectRatio="xMidYMid meet">
<metadata>
Created by potrace 1.11, written by Peter Selinger 2001-2013
</metadata>
<g transform="translate(0.000000,512.000000) scale(0.100000,-0.100000)"
fill="#000000" stroke="none">
<path d="M1240 3595 l0 -205 230 0 c177 0 230 -3 230 -12 0 -11 -28 -111 -134
-468 l-23 -75 -486 -3 -487 -2 0 -210 0 -210 420 0 c231 0 420 -4 420 -9 0 -4
-33 -120 -74 -257 -41 -137 -108 -364 -150 -504 -41 -140 -82 -276 -90 -303
l-14 -47 156 2 157 3 166 555 165 555 831 3 830 2 158 -527 c87 -291 162 -543
167 -561 l9 -32 159 0 c88 0 160 3 160 7 0 7 -318 1076 -327 1101 -4 9 84 12
421 12 l426 0 0 210 0 210 -488 0 -488 0 -79 263 c-42 144 -80 270 -82 280 -5
16 11 17 231 17 l236 0 0 205 0 205 -1325 0 -1325 0 0 -205z m1932 -465 c42
-140 80 -265 83 -277 l5 -23 -703 0 -704 0 63 211 c35 116 73 242 84 280 l21
69 537 -2 537 -3 77 -255z"/>
</g>
</svg>
